<svg width="96" height="96" viewBox="0 0 96 96" fill="none" xmlns="http://www.w3.org/2000/svg">
<rect width="96" height="96" rx="15" fill="white"/>
<g clip-path="url(#clip0)">
<path d="M28.6237 50.1081C27.4579 50.1081 26.4511 51.1351 26.4511 52.3243C26.4511 53.5135 27.4579 54.5405 28.6237 54.5405C29.7894 54.5405 30.7962 53.5135 30.7962 52.3243C30.7962 51.045 29.7894 50.1081 28.6237 50.1081Z" fill="#9FCF67"/>
<path d="M14.4925 32.5946C12.9912 32.5946 11.7724 33.9099 11.7724 35.6937C11.7724 37.4054 12.9912 38.7387 14.4925 38.7387C15.9939 38.7387 17.2126 37.3694 17.2126 35.6937C17.2126 33.982 15.9939 32.5946 14.4925 32.5946ZM19.9327 40.5225C19.9327 44.1081 17.8308 46.3423 14.4395 46.3423C11.8961 46.3604 9.70584 44.8649 9.29959 42.5766H12.267C12.6202 43.4414 13.6977 43.7658 14.4395 43.7658C16.3471 43.7658 17.2126 42.4865 17.2126 40.5586V40.0901C16.4178 40.8829 15.3227 41.2973 14.1216 41.2973C11.3308 41.2973 9.05231 38.7748 9.05231 35.6757C9.05231 32.5586 11.2955 30 14.4925 30C17.6719 30 19.9151 32.5586 19.9151 35.6757V40.5225H19.9327Z" fill="#00285E"/>
<path d="M27.6522 32.6667C25.9212 32.3604 24.7731 33.2973 24.7731 34.8288V41.0811H22.0706V34.8288C22.0706 31.7658 24.1549 29.6216 27.6522 30.0721V32.6667Z" fill="#00285E"/>
<path d="M36.0068 33.4054C35.5122 32.7928 34.7704 32.4324 33.9049 32.4324C32.3505 32.4324 31.0965 33.6937 31.0258 35.5315L36.0068 33.4054ZM39.0448 37.6396C38.4266 39.8378 36.5543 41.3333 33.9226 41.3333C30.9198 41.3333 28.5 38.8108 28.5 35.6937C28.5 32.5766 30.9198 30.018 33.9226 30.018C36.466 30.018 38.6033 31.6577 39.1155 34.5405L31.6264 37.7477C32.1562 38.4865 32.9687 38.9009 33.8872 38.9009C34.7704 38.9009 35.6712 38.5045 36.1304 37.6396H39.0448Z" fill="#00285E"/>
<path d="M47.894 33.4054C47.3995 32.7928 46.6576 32.4324 45.7921 32.4324C44.2378 32.4324 42.9837 33.6937 42.9131 35.5315L47.894 33.4054ZM50.9321 37.6396C50.3139 39.8378 48.4416 41.3333 45.8098 41.3333C42.8071 41.3333 40.3872 38.8108 40.3872 35.6937C40.3872 32.5766 42.8071 30.018 45.8098 30.018C48.3533 30.018 50.4905 31.6577 51.0027 34.5405L43.5313 37.7477C44.0612 38.4865 44.8737 38.9009 45.7921 38.9009C46.6753 38.9009 47.5761 38.5045 48.0353 37.6396H50.9321Z" fill="#00285E"/>
<path d="M57.5027 30C60.4701 30 62.2011 32 62.2011 34.8288V41.0811H59.481V34.7748C59.481 34.1622 59.269 32.7207 57.4851 32.7207C56.3016 32.7207 55.4361 33.5676 55.4361 34.7748V41.0811H52.716V34.8288C52.7337 32.0721 54.6236 30 57.5027 30Z" fill="#00285E"/>
<path d="M50.8084 56.5586C47.6997 56.9009 46.0571 54.991 46.0571 52.036V43.0451H48.7772V45.7838H50.6848V48.2342H48.7772V52.0541C48.7772 53.5676 49.4484 54.1261 50.8084 54.0541V56.5586Z" fill="#00285E"/>
<path d="M57.3791 56.8288C54.4117 56.8288 52.6807 54.8288 52.6807 52V45.7838H55.4008V52.0901C55.4008 52.7027 55.6128 54.1441 57.3967 54.1441C58.5802 54.1441 59.4457 53.2793 59.4457 52.0901V45.7838H62.1658V52.018C62.1304 54.7568 60.2405 56.8288 57.3791 56.8288Z" fill="#00285E"/>
<path d="M69.7079 48.1081C68.2065 48.1081 66.9878 49.4955 66.9878 51.2072C66.9878 52.8829 68.2065 54.2523 69.7079 54.2523C71.2092 54.2523 72.428 52.9369 72.428 51.2072C72.4103 49.4414 71.2092 48.1081 69.7079 48.1081ZM69.7079 56.8288C66.4932 56.8288 64.2677 54.3063 64.2677 51.1892V40.991H67.0054V46.8108C67.8003 45.9459 68.86 45.5495 70.0965 45.5495C72.8872 45.5495 75.1481 48.0901 75.1481 51.1892C75.1304 54.3243 72.8872 56.8288 69.7079 56.8288Z" fill="#00285E"/>
<path d="M83.856 48.9189C83.3614 48.3063 82.6196 47.9459 81.7541 47.9459C80.1997 47.9459 78.9457 49.2072 78.875 51.045L83.856 48.9189ZM86.9117 53.1532C86.2935 55.3514 84.4212 56.8468 81.7894 56.8468C78.7867 56.8468 76.3669 54.3243 76.3669 51.2072C76.3669 48.0901 78.7867 45.5315 81.7894 45.5315C84.3329 45.5315 86.4701 47.1712 86.9823 50.0541L79.5109 53.2432C80.0408 53.982 80.8533 54.3964 81.7717 54.3964C82.6549 54.3964 83.5557 54 84.0149 53.1351H86.9117V53.1532Z" fill="#00285E"/>
<path d="M13.2745 52.3243C13.2745 51.045 12.356 50.1081 11.1726 50.1081C10.0068 50.1081 9 51.1351 9 52.3243C9 53.5135 10.0068 54.5405 11.1726 54.5405C12.356 54.5585 13.2745 53.5315 13.2745 52.3243Z" fill="#00285E"/>
<path d="M16.966 50.1081C15.8003 50.1081 14.7935 51.1351 14.7935 52.3243C14.7935 53.5135 15.712 54.5405 16.966 54.5405C18.1318 54.5405 19.1386 53.5135 19.1386 52.3243C19.1386 51.045 18.1318 50.1081 16.966 50.1081Z" fill="#00285E"/>
<path d="M22.8301 54.5586C23.9959 54.5586 24.932 53.5315 24.932 52.3423C24.932 51.0631 24.0136 50.1261 22.8301 50.1261C21.5761 50.1261 20.6576 51.1532 20.6576 52.3423C20.6576 53.5315 21.5761 54.5586 22.8301 54.5586Z" fill="#00285E"/>
<path d="M36.6603 52.3243C36.6603 51.045 35.6535 50.1081 34.4878 50.1081C33.322 50.1081 32.3152 51.1351 32.3152 52.3243C32.3152 53.5135 33.322 54.5405 34.4878 54.5405C35.6535 54.5585 36.6603 53.5315 36.6603 52.3243Z" fill="#00285E"/>
<path d="M40.3519 50.1081C39.1861 50.1081 38.1794 51.1351 38.1794 52.3243C38.1794 53.5135 39.0978 54.5405 40.3519 54.5405C41.5353 54.5405 42.5245 53.5135 42.5245 52.3243C42.5245 51.045 41.5353 50.1081 40.3519 50.1081Z" fill="#00285E"/>
<path d="M86.9117 61.4414H9.12363V61.6937H58.1209H86.9117V61.4414Z" fill="#00285E"/>
<path d="M36.6956 63.2793H37.3315L38.3206 65.2613V63.2793H38.8152V65.9459H38.1793L37.1902 63.964V65.9459H36.6956V63.2793Z" fill="#00285E"/>
<path d="M40.7582 63.2432C41.5707 63.2432 42.0299 63.8018 42.0299 64.6126C42.0299 65.4234 41.5707 66 40.7582 66C39.928 66 39.4864 65.4234 39.4864 64.6126C39.4864 63.8018 39.928 63.2432 40.7582 63.2432ZM40.7582 65.5676C41.288 65.5676 41.4823 65.0811 41.4823 64.5946C41.4823 64.1261 41.2704 63.6396 40.7582 63.6396C40.2459 63.6396 40.034 64.1261 40.034 64.5946C40.034 65.0991 40.2283 65.5676 40.7582 65.5676Z" fill="#00285E"/>
<path d="M42.4362 63.2793H43.0014L43.6726 65.3694L44.3261 63.2793H44.8383L43.9552 65.9459H43.3193L42.4362 63.2793Z" fill="#00285E"/>
<path d="M46.534 63.2432C47.3465 63.2432 47.8057 63.8018 47.8057 64.6126C47.8057 65.4234 47.3465 66 46.534 66C45.7038 66 45.2622 65.4234 45.2622 64.6126C45.2622 63.8018 45.7038 63.2432 46.534 63.2432ZM46.534 65.5676C47.0639 65.5676 47.2582 65.0811 47.2582 64.5946C47.2582 64.1261 47.0462 63.6396 46.534 63.6396C46.0217 63.6396 45.8098 64.1261 45.8098 64.5946C45.7921 65.0991 46.0041 65.5676 46.534 65.5676Z" fill="#00285E"/>
<path d="M48.4769 63.2793H49.3071L49.9253 65.2973L50.5435 63.2793H51.3736V65.9459H50.8791V63.7477L50.1725 65.9459H49.678L48.9715 63.7477V65.9279H48.4769V63.2793V63.2793Z" fill="#00285E"/>
<path d="M52.9456 63.2793H53.5285L54.553 65.9459H53.9701L53.7405 65.3333H52.6807L52.4511 65.9459H51.9212L52.9456 63.2793ZM53.2282 63.8198L52.8397 64.9189H53.5992L53.2282 63.8198Z" fill="#00285E"/>
<path d="M55.2595 63.7117H54.5177V63.2973H56.5312V63.7117H55.7894V65.9459H55.2595V63.7117Z" fill="#00285E"/>
<path d="M56.9905 63.2793H57.5204V64.9009V65.9459H56.9905V63.2793Z" fill="#00285E"/>
<path d="M60.1698 65.9099C59.9755 65.964 59.7812 66 59.5693 66C58.7215 66 58.1386 65.5676 58.1386 64.6667C58.1386 63.7477 58.6861 63.2432 59.5693 63.2432C59.7459 63.2432 59.9755 63.2793 60.1522 63.3513L60.1168 63.8018C59.9226 63.6937 59.7459 63.6577 59.5516 63.6577C59.0217 63.6577 58.6685 64.0721 58.6685 64.6306C58.6685 65.1712 59.0041 65.5856 59.5516 65.5856C59.7636 65.5856 59.9932 65.5315 60.1168 65.4775L60.1698 65.9099Z" fill="#00285E"/>
<path d="M63.3315 63.2793H63.9674L64.9565 65.2613V63.2793H65.4511V65.9459H64.8152L63.8261 63.964V65.9459H63.3315V63.2793Z" fill="#00285E"/>
<path d="M82.3546 63.2793H82.9199L83.5911 65.3694L84.2446 63.2793H84.7568L83.8737 65.9459H83.2378L82.3546 63.2793Z" fill="#00285E"/>
<path d="M74.1766 63.2793H74.7595L75.784 65.9459H75.2011L74.9715 65.3333H73.9117L73.6821 65.9459H73.1345L74.1766 63.2793ZM74.4592 63.8198L74.0706 64.9189H74.8302L74.4592 63.8198Z" fill="#00285E"/>
<path d="M66.6698 63.6937H65.928V63.2793H67.9416V63.6937H67.1997V65.9279H66.6698V63.6937Z" fill="#00285E"/>
<path d="M79.4049 63.6937H78.663V63.2793H80.6766V63.6937H79.9348V65.9279H79.4049V63.6937Z" fill="#00285E"/>
<path d="M62.0245 63.2793H62.5544V64.9009V65.9459H62.0245V63.2793Z" fill="#00285E"/>
<path d="M81.2772 63.2793H81.8071V64.9009V65.9459H81.2772V63.2793Z" fill="#00285E"/>
<path d="M78.0978 65.9099C77.9035 65.964 77.7092 66 77.4973 66C76.6494 66 76.0666 65.5676 76.0666 64.6667C76.0666 63.7477 76.6141 63.2432 77.4973 63.2432C77.6739 63.2432 77.9035 63.2793 78.0802 63.3513L78.0448 63.8018C77.8505 63.6937 77.6739 63.6577 77.4796 63.6577C76.9497 63.6577 76.5965 64.0721 76.5965 64.6306C76.5965 65.1712 76.9321 65.5856 77.4796 65.5856C77.6916 65.5856 77.9212 65.5315 78.0448 65.4775L78.0978 65.9099Z" fill="#00285E"/>
<path d="M70.8736 63.2793H71.4389C72.0041 63.2793 72.6753 63.2613 72.6753 64C72.6753 64.3063 72.4633 64.5766 72.1454 64.6126C72.2867 64.6306 72.375 64.7748 72.428 64.8829L72.8519 65.9279H72.269L71.9511 65.0991C71.8804 64.9009 71.8098 64.8288 71.5802 64.8288H71.4035V65.9279H70.8736V63.2793V63.2793ZM71.4035 64.4144H71.5802C71.8451 64.4144 72.1277 64.3784 72.1277 64.036C72.1277 63.7117 71.8274 63.6937 71.5802 63.6937H71.4035V64.4144Z" fill="#00285E"/>
<path d="M70.0611 64.7568H69.019V65.5315H70.1848V65.9279H68.5244V63.2613H70.1318V63.6577H69.0367V64.3423H70.0788V64.7568H70.0611Z" fill="#00285E"/>
<path d="M86.8764 64.7568H85.8343V65.5315H87V65.9279H85.3397V63.2613H86.947V63.6577H85.8343V64.3423H86.8764V64.7568Z" fill="#00285E"/>
</g>
<defs>
<clipPath id="clip0">
<rect x="9" y="30" width="78" height="36" fill="white"/>
</clipPath>
</defs>
</svg>
