<svg width="25" height="25" viewBox="0 0 25 25" fill="none" xmlns="http://www.w3.org/2000/svg">
<path d="M24 0H1C0.446875 0 0 0.446875 0 1V24C0 24.5531 0.446875 25 1 25H24C24.5531 25 25 24.5531 25 24V1C25 0.446875 24.5531 0 24 0ZM7.41562 21.3031H3.70625V9.37187H7.41562V21.3031ZM5.5625 7.74063C5.13727 7.74063 4.72159 7.61453 4.36802 7.37828C4.01446 7.14204 3.73889 6.80625 3.57616 6.41339C3.41343 6.02053 3.37085 5.58824 3.45381 5.17118C3.53677 4.75412 3.74154 4.37103 4.04222 4.07035C4.3429 3.76966 4.726 3.56489 5.14306 3.48194C5.56012 3.39898 5.99241 3.44156 6.38527 3.60428C6.77813 3.76701 7.11391 4.04258 7.35016 4.39615C7.5864 4.74971 7.7125 5.1654 7.7125 5.59062C7.70937 6.77812 6.74688 7.74063 5.5625 7.74063ZM21.3031 21.3031H17.5969V15.5C17.5969 14.1156 17.5719 12.3375 15.6688 12.3375C13.7406 12.3375 13.4438 13.8438 13.4438 15.4V21.3031H9.74063V9.37187H13.2969V11.0031H13.3469C13.8406 10.0656 15.05 9.075 16.8563 9.075C20.6125 9.075 21.3031 11.5469 21.3031 14.7594V21.3031Z" fill="#4A4A4A"/>
</svg>
